<svg width="2062" height="1082" viewBox="0 0 2062 1082" fill="none" xmlns="http://www.w3.org/2000/svg">
<g opacity="0.5">
<path opacity="0.014" d="M1852.05 1063.12L2054.48 808.079C2058.25 803.334 2059.99 797.293 2059.33 791.269L2008.29 327.97C2007.77 323.231 2005.79 318.771 2002.62 315.209L1731.43 10.092C1728.62 6.92287 1724.98 4.59398 1720.92 3.36256C1716.86 2.13114 1712.54 2.0451 1708.44 3.11399L1433.66 74.668C1429.56 75.7366 1425.83 77.9181 1422.89 80.9716C1419.95 84.0251 1417.91 87.8319 1416.99 91.972L1329.06 490.605C1328.03 495.261 1328.48 500.121 1330.34 504.511L1511.74 933.859C1514.1 939.443 1518.57 943.871 1524.18 946.179L1825.28 1070.09C1834.76 1073.99 1845.68 1071.15 1852.05 1063.12Z" stroke="white" stroke-width="4"/>
<path opacity="0.029" d="M1801.27 1068.05L2015.61 826.047C2019.63 821.497 2021.7 815.547 2021.35 809.487L1995.1 348.419C1994.83 343.645 1993.07 339.074 1990.08 335.343L1737 19.5394C1734.35 16.2352 1730.85 13.7259 1726.86 12.2882C1722.88 10.8505 1718.58 10.5402 1714.43 11.3915L1437.93 68.1275C1433.79 68.98 1429.95 70.9601 1426.86 73.8498C1423.77 76.7396 1421.53 80.4268 1420.4 84.5055L1312.13 474.455C1310.85 479.063 1311.04 483.954 1312.67 488.449L1470.11 922.597C1472.18 928.306 1476.42 932.965 1481.91 935.557L1774.23 1073.6C1783.48 1077.96 1794.49 1075.7 1801.27 1068.05Z" stroke="white" stroke-width="4"/>
<path opacity="0.043" d="M1750.65 1071.4L1976.1 842.981C1980.37 838.651 1982.75 832.81 1982.73 826.731L1980.88 369.204C1980.86 364.408 1979.34 359.739 1976.54 355.847L1741.93 30.4047C1739.46 26.9749 1736.09 24.2931 1732.19 22.6539C1728.29 21.0148 1724.02 20.4819 1719.84 21.1137L1442.42 63.0477C1438.24 63.6808 1434.31 65.4538 1431.08 68.1719C1427.84 70.8901 1425.41 74.4483 1424.06 78.4557L1296.13 458.698C1294.6 463.244 1294.53 468.154 1295.93 472.742L1429.39 910.371C1431.17 916.188 1435.17 921.067 1440.53 923.941L1723.42 1075.52C1732.4 1080.33 1743.49 1078.66 1750.65 1071.4Z" stroke="white" stroke-width="4"/>
<path opacity="0.058" d="M1700.28 1073.21L1936 858.858C1940.51 854.758 1943.2 849.048 1943.5 842.958L1965.62 390.254C1965.85 385.45 1964.58 380.693 1961.97 376.65L1746.15 42.6311C1743.86 39.0837 1740.63 36.2359 1736.83 34.3999C1733.03 32.564 1728.79 31.8108 1724.59 32.2231L1447.04 59.4171C1442.84 59.8285 1438.83 61.3894 1435.45 63.9287C1432.08 66.4679 1429.47 69.8874 1427.91 73.8121L1281.03 443.366C1279.25 447.836 1278.92 452.752 1280.08 457.421L1389.65 897.228C1391.12 903.138 1394.87 908.224 1400.09 911.368L1672.93 1075.89C1677.17 1078.44 1682.12 1079.56 1687.05 1079.08C1691.98 1078.6 1696.62 1076.54 1700.28 1073.21Z" stroke="white" stroke-width="4"/>
<path opacity="0.072" d="M1650.25 1073.5L1895.39 873.658C1900.12 869.808 1903.12 864.238 1903.74 858.168L1949.31 411.522C1949.8 406.721 1948.77 401.887 1946.36 397.705L1749.59 56.1749C1747.49 52.5201 1744.42 49.5147 1740.72 47.4873C1737.02 45.4599 1732.83 44.4887 1728.62 44.6799L1451.71 57.2349C1447.5 57.4269 1443.42 58.7731 1439.92 61.1263C1436.42 63.4796 1433.63 66.7495 1431.86 70.5789L1266.8 428.514C1264.78 432.897 1264.19 437.804 1265.11 442.541L1350.92 883.228C1352.08 889.215 1355.58 894.496 1360.63 897.908L1622.85 1074.74C1626.95 1077.5 1631.82 1078.87 1636.76 1078.64C1641.69 1078.42 1646.42 1076.62 1650.25 1073.5Z" stroke="white" stroke-width="4"/>
<path opacity="0.087" d="M1600.62 1072.3L1854.32 887.37C1856.76 885.59 1858.83 883.345 1860.41 880.764C1861.98 878.183 1863.04 875.317 1863.5 872.33L1931.96 432.947C1932.7 428.163 1931.92 423.267 1929.72 418.954L1752.18 70.9798C1750.27 67.2271 1747.36 64.0723 1743.77 61.8597C1740.19 59.6471 1736.06 58.4617 1731.85 58.4328L1456.35 56.4888C1452.14 56.4602 1448 57.5881 1444.39 59.7498C1440.77 61.9115 1437.82 65.0238 1435.85 68.7478L1253.42 414.183C1251.16 418.465 1250.31 423.349 1250.98 428.143L1313.23 868.44C1313.66 871.435 1314.67 874.318 1316.21 876.923C1317.74 879.527 1319.78 881.803 1322.2 883.62L1573.27 1072.11C1577.21 1075.07 1581.99 1076.68 1586.91 1076.72C1591.84 1076.75 1596.64 1075.2 1600.62 1072.3Z" stroke="white" stroke-width="4"/>
<path opacity="0.101" d="M1551.49 1069.65L1812.86 899.97C1817.99 896.64 1821.58 891.41 1822.84 885.42L1913.54 454.468C1914.55 449.715 1914.02 444.765 1912.03 440.334L1753.86 86.9837C1752.14 83.1447 1749.4 79.8505 1745.94 77.4593C1742.48 75.0681 1738.43 73.6713 1734.23 73.4207L1460.89 57.1616C1456.69 56.912 1452.5 57.8185 1448.78 59.7826C1445.06 61.7467 1441.95 64.6932 1439.79 68.3017L1240.85 400.409C1238.35 404.575 1237.24 409.425 1237.67 414.264L1276.64 852.93C1276.91 855.946 1277.77 858.88 1279.18 861.562C1280.58 864.244 1282.5 866.623 1284.83 868.56L1524.24 1068.03C1528.01 1071.18 1532.7 1073.03 1537.6 1073.32C1542.5 1073.61 1547.37 1072.33 1551.49 1069.65Z" stroke="white" stroke-width="4"/>
<path opacity="0.116" d="M1502.92 1065.6L1771.07 911.46C1776.38 908.41 1780.25 903.36 1781.83 897.44L1894.08 476.027C1895.34 471.318 1895.06 466.333 1893.3 461.79L1754.57 104.127C1753.05 100.211 1750.49 96.7859 1747.16 94.223C1743.83 91.66 1739.87 90.0572 1735.69 89.5884L1465.25 59.2334C1461.08 58.7649 1456.85 59.4484 1453.04 61.2099C1449.23 62.9713 1445.97 65.7434 1443.62 69.2254L1229.04 387.232C1226.32 391.274 1224.95 396.074 1225.13 400.942L1241.16 836.75C1241.39 842.88 1244.05 848.66 1248.55 852.81L1475.86 1062.56C1483.24 1069.38 1494.2 1070.61 1502.92 1065.6Z" stroke="white" stroke-width="4"/>
<path opacity="0.13" d="M1454.98 1060.18L1729 921.821C1734.48 919.061 1738.62 914.211 1740.51 908.381L1873.57 497.569C1875.08 492.918 1875.06 487.907 1873.53 483.265L1754.25 122.347C1752.94 118.363 1750.56 114.816 1747.37 112.088C1744.18 109.361 1740.31 107.557 1736.17 106.873L1469.35 62.6808C1460.92 61.2838 1452.4 64.6808 1447.25 71.4988L1217.98 374.69C1215.03 378.589 1213.4 383.328 1213.33 388.217L1206.83 819.991C1206.79 823.029 1207.35 826.045 1208.47 828.867C1209.6 831.688 1211.28 834.259 1213.4 836.431L1428.18 1055.74C1431.6 1059.23 1436.04 1061.54 1440.85 1062.34C1445.67 1063.14 1450.62 1062.38 1454.98 1060.18Z" stroke="white" stroke-width="4"/>
<path opacity="0.145" d="M1407.75 1053.45L1686.73 931.05C1689.52 929.83 1692.03 928.069 1694.13 925.868C1696.23 923.667 1697.87 921.071 1698.96 918.229L1852.03 519.034C1853.78 514.453 1854.03 509.431 1852.73 504.701L1752.87 141.573C1751.76 137.534 1749.56 133.876 1746.53 130.992C1743.49 128.109 1739.72 126.109 1735.63 125.209L1473.13 67.4745C1469.04 66.5747 1464.78 66.809 1460.81 68.1523C1456.85 69.4955 1453.32 71.8966 1450.62 75.0965L1207.61 362.814C1204.45 366.563 1202.56 371.223 1202.23 376.117L1173.68 802.699C1173.48 805.734 1173.88 808.779 1174.86 811.658C1175.84 814.536 1177.39 817.191 1179.4 819.469L1381.28 1047.63C1384.51 1051.28 1388.81 1053.8 1393.57 1054.85C1398.32 1055.89 1403.29 1055.4 1407.75 1053.45Z" stroke="white" stroke-width="4"/>
<path opacity="0.159" d="M1361.28 1045.45L1644.31 939.159C1647.16 938.088 1649.78 936.461 1651.99 934.371C1654.21 932.282 1655.99 929.773 1657.23 926.989L1829.45 540.367C1831.46 535.871 1831.97 530.85 1830.9 526.044L1750.36 161.74C1749.46 157.656 1747.46 153.895 1744.58 150.863C1741.7 147.83 1738.04 145.641 1734.01 144.531L1476.52 73.5847C1472.49 72.4732 1468.23 72.4824 1464.2 73.6113C1460.17 74.7403 1456.53 76.9462 1453.66 79.9917L1197.9 351.636C1194.53 355.221 1192.39 359.793 1191.81 364.681L1141.71 784.949C1141.35 787.975 1141.59 791.043 1142.43 793.974C1143.27 796.904 1144.68 799.639 1146.58 802.019L1335.22 1038.27C1341.44 1046.06 1351.96 1048.96 1361.28 1045.45Z" stroke="white" stroke-width="4"/>
<path opacity="0.174" d="M1315.64 1036.25L1601.8 946.14C1604.71 945.222 1607.41 943.734 1609.74 941.763C1612.07 939.792 1613.99 937.378 1615.38 934.66L1805.86 561.516C1808.11 557.116 1808.88 552.11 1808.06 547.239L1746.69 182.777C1745.99 178.659 1744.19 174.808 1741.48 171.637C1738.76 168.465 1735.23 166.092 1731.27 164.772L1479.43 80.9765C1475.47 79.6586 1471.22 79.4441 1467.15 80.3561C1463.07 81.2681 1459.32 83.2723 1456.3 86.1535L1188.8 341.189C1185.22 344.596 1182.84 349.066 1182 353.935L1110.95 766.82C1109.9 772.9 1111.34 779.14 1114.94 784.15L1290.06 1027.74C1292.89 1031.67 1296.88 1034.61 1301.47 1036.13C1306.07 1037.66 1311.02 1037.7 1315.64 1036.25Z" stroke="white" stroke-width="4"/>
<path opacity="0.188" d="M1270.9 1025.9L1559.27 952.008C1565.25 950.468 1570.37 946.598 1573.46 941.248L1781.28 582.42C1783.76 578.13 1784.8 573.152 1784.22 568.229L1741.82 204.606C1741.34 200.465 1739.74 196.533 1737.19 193.23C1734.65 189.928 1731.25 187.379 1727.37 185.857L1481.83 89.6097C1477.95 88.088 1473.72 87.6503 1469.61 88.3434C1465.5 89.0365 1461.65 90.8343 1458.48 93.5447L1180.27 331.493C1176.51 334.716 1173.88 339.069 1172.79 343.903L1081.41 748.378C1080.73 751.359 1080.66 754.445 1081.19 757.456C1081.72 760.466 1082.85 763.34 1084.51 765.908L1245.86 1016.08C1251.22 1024.4 1261.31 1028.35 1270.9 1025.9Z" stroke="white" stroke-width="4"/>
<path opacity="0.203" d="M1227.09 1014.45L1516.78 956.758C1519.78 956.159 1522.64 954.966 1525.17 953.251C1527.71 951.536 1529.88 949.332 1531.55 946.768L1755.72 603.038C1758.44 598.868 1759.73 593.928 1759.41 588.966L1735.72 227.159C1735.45 223.005 1734.05 219.004 1731.68 215.58C1729.31 212.156 1726.06 209.439 1722.27 207.717L1483.63 99.4452C1479.84 97.7253 1475.65 97.0666 1471.52 97.5395C1467.38 98.0123 1463.45 99.599 1460.14 102.13L1172.27 322.579C1168.32 325.605 1165.47 329.829 1164.12 334.617L1053.09 729.688C1052.26 732.637 1052.03 735.722 1052.41 738.761C1052.79 741.8 1053.77 744.733 1055.3 747.388L1202.67 1003.37C1205.07 1007.54 1208.72 1010.85 1213.1 1012.84C1217.48 1014.83 1222.37 1015.39 1227.09 1014.45Z" stroke="white" stroke-width="4"/>
<path opacity="0.217" d="M1184.28 1001.99L1474.37 960.417C1480.51 959.537 1486.03 956.227 1489.68 951.217L1729.21 623.297C1732.16 619.267 1733.71 614.387 1733.64 609.397L1728.35 250.356C1728.29 246.201 1727.1 242.139 1724.92 238.603C1722.73 235.068 1719.63 232.19 1715.94 230.276L1484.78 110.436C1481.09 108.523 1476.95 107.646 1472.8 107.898C1468.66 108.15 1464.65 109.521 1461.22 111.866L1164.76 314.464C1160.64 317.279 1157.54 321.362 1155.94 326.093L1026 710.827C1025.02 713.733 1024.63 716.806 1024.86 719.865C1025.08 722.923 1025.92 725.906 1027.31 728.637L1160.53 989.667C1162.71 993.941 1166.17 997.425 1170.43 999.634C1174.69 1001.84 1179.53 1002.67 1184.28 1001.99Z" stroke="white" stroke-width="4"/>
<path opacity="0.232" d="M1142.5 988.549L1432.12 963.009C1438.3 962.459 1444.01 959.439 1447.93 954.629L1701.77 643.179C1704.94 639.289 1706.75 634.479 1706.93 629.469L1719.7 274.126C1720 265.676 1715.64 257.742 1708.35 253.463L1485.23 122.538C1481.65 120.438 1477.57 119.345 1473.42 119.376C1469.27 119.406 1465.21 120.559 1461.66 122.712L1157.67 307.171C1153.39 309.771 1150.07 313.699 1148.23 318.357L1000.14 691.869C999.008 694.725 998.46 697.778 998.529 700.849C998.598 703.92 999.282 706.947 1000.54 709.749L1119.49 975.049C1121.44 979.414 1124.71 983.061 1128.84 985.481C1132.96 987.901 1137.74 988.974 1142.5 988.549Z" stroke="white" stroke-width="4"/>
<path opacity="0.246" d="M1101.8 974.231L1390.08 964.531C1396.29 964.321 1402.16 961.601 1406.34 956.991L1673.44 662.611C1676.82 658.881 1678.88 654.151 1679.32 649.141L1709.74 298.386C1710.1 294.258 1709.34 290.11 1707.53 286.38C1705.73 282.651 1702.95 279.478 1699.49 277.198L1484.93 135.698C1481.47 133.417 1477.46 132.113 1473.32 131.923C1469.19 131.733 1465.07 132.664 1461.42 134.619L1150.98 300.715C1146.55 303.088 1143.01 306.849 1140.92 311.423L975.51 672.871C974.228 675.669 973.521 678.696 973.432 681.773C973.342 684.849 973.872 687.913 974.99 690.781L1079.59 959.581C1081.32 964.023 1084.38 967.818 1088.36 970.443C1092.34 973.067 1097.04 974.391 1101.8 974.231Z" stroke="white" stroke-width="4"/>
<path opacity="0.261" d="M1062.22 959.078L1348.29 965.008C1351.37 965.073 1354.44 964.516 1357.3 963.372C1360.17 962.228 1362.77 960.519 1364.96 958.348L1644.23 681.548C1647.82 677.998 1650.13 673.358 1650.82 668.358L1698.46 323.055C1699.03 318.958 1698.48 314.785 1696.87 310.974C1695.26 307.163 1692.66 303.856 1689.33 301.401L1483.81 149.86C1480.48 147.405 1476.55 145.893 1472.44 145.484C1468.33 145.075 1464.18 145.783 1460.43 147.534L1144.63 295.103C1140.06 297.24 1136.31 300.824 1133.98 305.301L952.09 653.908C950.665 656.642 949.803 659.634 949.557 662.708C949.312 665.781 949.687 668.872 950.66 671.798L1040.87 943.338C1042.37 947.844 1045.23 951.777 1049.05 954.595C1052.87 957.413 1057.47 958.979 1062.22 959.078Z" stroke="white" stroke-width="4"/>
<path opacity="0.275" d="M1023.79 943.178L1306.82 964.478C1313.04 964.948 1319.18 962.868 1323.84 958.708L1614.19 699.958C1617.97 696.588 1620.54 692.058 1621.48 687.078L1685.85 348.063C1686.62 344.006 1686.29 339.817 1684.88 335.935C1683.47 332.053 1681.04 328.622 1677.85 326.001L1481.85 164.974C1478.66 162.353 1474.82 160.639 1470.74 160.013C1466.66 159.386 1462.48 159.869 1458.65 161.412L1138.58 290.355C1133.88 292.249 1129.93 295.643 1127.36 300.01L929.879 635.058C928.311 637.718 927.294 640.667 926.891 643.729C926.487 646.791 926.704 649.902 927.529 652.878L1003.36 926.388C1004.63 930.949 1007.27 935.008 1010.92 938.013C1014.58 941.017 1019.07 942.821 1023.79 943.178Z" stroke="white" stroke-width="4"/>
<path opacity="0.29" d="M986.551 926.587L1265.7 962.957C1271.9 963.767 1278.17 962.017 1283.05 958.107L1583.35 717.787C1587.32 714.617 1590.13 710.207 1591.33 705.257L1671.9 373.326C1672.87 369.321 1672.75 365.128 1671.55 361.186C1670.34 357.244 1668.1 353.698 1665.06 350.918L1478.98 180.982C1475.94 178.202 1472.21 176.291 1468.17 175.45C1464.14 174.608 1459.95 174.866 1456.05 176.197L1132.77 286.476C1127.95 288.119 1123.82 291.313 1121.01 295.558L908.855 616.367C907.148 618.948 905.98 621.847 905.419 624.89C904.859 627.933 904.918 631.058 905.594 634.077L967.071 908.807C968.102 913.411 970.524 917.587 974.009 920.767C977.493 923.948 981.872 925.98 986.551 926.587Z" stroke="white" stroke-width="4"/>
<path opacity="0.304" d="M950.5 909.389L1225.01 960.479C1231.16 961.629 1237.52 960.209 1242.61 956.569L1551.74 735.009C1555.89 732.039 1558.94 727.759 1560.39 722.869L1656.61 398.772C1657.78 394.829 1657.88 390.642 1656.88 386.65C1655.88 382.658 1653.83 379.007 1650.94 376.078L1475.19 197.827C1472.3 194.898 1468.68 192.798 1464.7 191.744C1460.73 190.69 1456.54 190.722 1452.58 191.836L1127.16 283.476C1122.24 284.86 1117.92 287.843 1114.89 291.954L888.998 597.929C887.157 600.423 885.839 603.263 885.123 606.279C884.408 609.295 884.309 612.424 884.834 615.479L932.045 890.669C932.839 895.302 935.034 899.58 938.334 902.927C941.634 906.274 945.88 908.529 950.5 909.389Z" stroke="white" stroke-width="4"/>
<path opacity="0.319" d="M915.692 891.66L1184.77 957.08C1190.86 958.56 1197.3 957.49 1202.59 954.11L1519.41 751.58C1523.73 748.82 1527.01 744.69 1528.71 739.85L1639.99 424.32C1641.36 420.447 1641.66 416.279 1640.87 412.249C1640.08 408.219 1638.23 404.473 1635.5 401.401L1470.42 215.446C1467.7 212.375 1464.2 210.089 1460.29 208.827C1456.38 207.566 1452.21 207.373 1448.2 208.27L1121.7 281.353C1116.7 282.474 1112.21 285.236 1108.95 289.2L870.291 579.78C868.32 582.179 866.856 584.952 865.986 587.932C865.116 590.912 864.858 594.038 865.229 597.12L898.29 872.06C898.851 876.71 900.817 881.078 903.927 884.581C907.036 888.083 911.141 890.553 915.692 891.66Z" stroke="white" stroke-width="4"/>
<path opacity="0.333" d="M882.117 873.457L1145.03 952.787C1148.01 953.685 1151.14 953.969 1154.23 953.624C1157.32 953.278 1160.3 952.31 1163.01 950.777L1486.4 767.457C1490.88 764.917 1494.38 760.947 1496.33 756.177L1622.03 449.889C1623.59 446.097 1624.1 441.958 1623.52 437.9C1622.94 433.842 1621.29 430.013 1618.73 426.809L1464.66 233.773C1462.1 230.569 1458.73 228.107 1454.9 226.641C1451.08 225.176 1446.92 224.76 1442.88 225.437L1116.34 280.106C1111.26 280.957 1106.62 283.489 1103.15 287.295L852.699 561.992C850.603 564.291 848.995 566.991 847.973 569.929C846.95 572.867 846.535 575.982 846.751 579.085L865.817 853.037C866.141 857.693 867.874 862.139 870.786 865.786C873.697 869.434 877.649 872.109 882.117 873.457Z" stroke="white" stroke-width="4"/>
<path opacity="0.348" d="M849.803 854.88L1105.84 947.64C1108.77 948.703 1111.89 949.159 1115 948.98C1118.11 948.801 1121.15 947.992 1123.94 946.6L1452.75 782.62C1457.37 780.31 1461.09 776.51 1463.29 771.83L1602.76 475.414C1604.5 471.713 1605.23 467.613 1604.86 463.538C1604.49 459.464 1603.03 455.562 1600.65 452.235L1457.86 252.757C1455.48 249.431 1452.25 246.799 1448.52 245.134C1444.78 243.47 1440.67 242.832 1436.6 243.287L1111.05 279.743C1105.91 280.32 1101.11 282.611 1097.43 286.248L836.201 544.633C833.986 546.825 832.238 549.444 831.066 552.331C829.893 555.219 829.319 558.315 829.379 561.43L834.642 833.7C834.731 838.35 836.228 842.863 838.935 846.644C841.641 850.425 845.431 853.297 849.803 854.88Z" stroke="white" stroke-width="4"/>
<path opacity="0.362" d="M818.749 835.977L1067.23 941.677C1073.03 944.147 1079.6 944.117 1085.39 941.607L1418.5 797.027C1423.26 794.957 1427.19 791.337 1429.63 786.757L1582.19 500.81C1584.11 497.207 1585.04 493.157 1584.88 489.077C1584.72 484.997 1583.47 481.034 1581.27 477.593L1450.02 272.32C1447.82 268.88 1444.75 266.088 1441.11 264.23C1437.47 262.372 1433.41 261.515 1429.33 261.748L1105.76 280.247C1100.57 280.544 1095.64 282.588 1091.76 286.045L820.758 527.748C818.428 529.827 816.545 532.358 815.225 535.187C813.904 538.016 813.174 541.085 813.078 544.205L804.763 814.107C804.621 818.737 805.88 823.302 808.375 827.204C810.871 831.106 814.486 834.164 818.749 835.977Z" stroke="white" stroke-width="4"/>
<path opacity="0.377" d="M788.962 816.84L1029.24 934.94C1032.05 936.318 1035.11 937.109 1038.23 937.266C1041.36 937.422 1044.48 936.94 1047.41 935.85L1383.7 810.66C1388.59 808.84 1392.71 805.41 1395.4 800.94L1560.33 526.016C1562.43 522.522 1563.56 518.533 1563.61 514.457C1563.66 510.382 1562.62 506.367 1560.61 502.824L1441.1 292.411C1439.09 288.868 1436.17 285.923 1432.65 283.878C1429.12 281.833 1425.12 280.76 1421.04 280.77L1100.43 281.625C1095.22 281.64 1090.16 283.427 1086.09 286.693L806.336 511.406C803.898 513.364 801.884 515.8 800.419 518.564C798.953 521.327 798.067 524.361 797.814 527.479L776.182 794.34C775.81 798.939 776.83 803.544 779.109 807.557C781.388 811.569 784.821 814.803 788.962 816.84Z" stroke="white" stroke-width="4"/>
<path opacity="0.391" d="M760.44 797.529L991.912 927.459C994.645 928.995 997.663 929.955 1000.78 930.28C1003.9 930.605 1007.05 930.288 1010.04 929.349L1348.39 823.489C1353.39 821.929 1357.71 818.699 1360.63 814.349L1537.22 550.951C1539.49 547.573 1540.82 543.655 1541.07 539.596C1541.33 535.537 1540.5 531.482 1538.68 527.846L1431.09 312.955C1429.27 309.318 1426.52 306.229 1423.11 304.003C1419.71 301.777 1415.77 300.493 1411.71 300.282L1095.03 283.855C1089.8 283.583 1084.63 285.107 1080.38 288.174L792.895 495.649C790.354 497.483 788.214 499.818 786.607 502.508C785.001 505.199 783.961 508.19 783.552 511.297L748.895 774.469C748.294 779.027 749.072 783.66 751.13 787.77C753.188 791.881 756.431 795.28 760.44 797.529Z" stroke="white" stroke-width="4"/>
<path opacity="0.406" d="M733.179 778.127L955.271 919.287C957.921 920.973 960.887 922.099 963.988 922.594C967.089 923.09 970.259 922.944 973.301 922.167L1312.63 835.487C1317.73 834.187 1322.23 831.177 1325.38 826.957L1512.87 575.549C1515.3 572.296 1516.82 568.459 1517.29 564.427C1517.75 560.395 1517.14 556.312 1515.51 552.593L1419.98 333.888C1418.36 330.169 1415.78 326.946 1412.51 324.546C1409.24 322.147 1405.39 320.656 1401.35 320.225L1089.5 286.931C1084.27 286.371 1079 287.625 1074.57 290.482L780.395 480.532C777.758 482.236 775.497 484.462 773.753 487.072C772.008 489.683 770.816 492.623 770.251 495.712L722.892 754.577C722.069 759.08 722.609 763.727 724.441 767.922C726.274 772.118 729.316 775.671 733.179 778.127Z" stroke="white" stroke-width="4"/>
<path opacity="0.42" d="M707.167 758.7L919.344 910.48C921.903 912.31 924.81 913.596 927.886 914.258C930.961 914.92 934.14 914.945 937.225 914.33L1276.47 846.66C1281.65 845.62 1286.32 842.83 1289.69 838.76L1487.33 599.75C1489.91 596.629 1491.62 592.881 1492.29 588.887C1492.95 584.893 1492.56 580.793 1491.13 577.002L1407.76 355.153C1406.34 351.362 1403.94 348.015 1400.81 345.449C1397.67 342.883 1393.92 341.19 1389.92 340.541L1083.79 290.844C1078.57 289.997 1073.22 290.973 1068.64 293.61L768.788 466.107C766.061 467.676 763.685 469.787 761.807 472.311C759.928 474.835 758.588 477.717 757.868 480.779L698.159 734.73C697.116 739.169 697.415 743.817 699.019 748.085C700.623 752.353 703.459 756.048 707.167 758.7Z" stroke="white" stroke-width="4"/>
<path opacity="0.435" d="M682.395 739.318L884.163 901.058C886.623 903.028 889.462 904.472 892.502 905.302C895.543 906.131 898.722 906.327 901.842 905.878L1239.94 856.958C1245.2 856.198 1250.03 853.638 1253.62 849.718L1460.62 623.478C1463.35 620.496 1465.24 616.848 1466.11 612.901C1466.98 608.955 1466.79 604.849 1465.57 600.998L1394.43 376.674C1393.21 372.822 1391 369.36 1388.01 366.636C1385.03 363.913 1381.38 362.024 1377.43 361.16L1077.88 295.568C1072.69 294.431 1067.27 295.126 1062.53 297.535L758.031 452.41C755.221 453.838 752.736 455.83 750.728 458.26C748.72 460.689 747.233 463.506 746.36 466.535L674.682 714.998C673.424 719.36 673.485 723.997 674.857 728.325C676.23 732.653 678.853 736.478 682.395 739.318Z" stroke="white" stroke-width="4"/>
<path opacity="0.449" d="M658.846 720.049L849.75 891.079C852.101 893.188 854.862 894.79 857.86 895.784C860.858 896.779 864.029 897.145 867.175 896.859L1203.11 866.389C1208.43 865.899 1213.41 863.589 1217.2 859.829L1432.79 646.679C1435.66 643.844 1437.73 640.305 1438.79 636.418C1439.86 632.53 1439.89 628.43 1438.87 624.529L1379.99 398.395C1378.98 394.493 1376.95 390.927 1374.12 388.054C1371.29 385.181 1367.76 383.102 1363.87 382.026L1071.71 301.092C1066.57 299.668 1061.09 300.076 1056.21 302.248L748.075 439.491C745.189 440.776 742.6 442.642 740.467 444.971C738.335 447.301 736.705 450.045 735.68 453.032L652.44 695.449C650.972 699.725 650.796 704.339 651.936 708.715C653.075 713.09 655.478 717.032 658.846 720.049Z" stroke="white" stroke-width="4"/>
<path opacity="0.464" d="M636.494 700.971L816.121 880.601C818.358 882.84 821.033 884.593 823.979 885.749C826.925 886.905 830.079 887.44 833.241 887.321L1166.02 874.931C1171.38 874.731 1176.5 872.661 1180.5 869.091L1403.87 669.301C1409.97 663.841 1412.71 655.551 1411.06 647.531L1364.43 420.249C1363.62 416.308 1361.79 412.649 1359.13 409.635C1356.46 406.622 1353.05 404.36 1349.24 403.076L1065.24 307.396C1060.16 305.683 1054.64 305.8 1049.64 307.728L738.865 427.387C735.912 428.523 733.225 430.258 730.972 432.48C728.72 434.703 726.951 437.367 725.775 440.306L631.403 676.161C629.731 680.341 629.322 684.919 630.227 689.329C631.132 693.739 633.311 697.787 636.494 700.971Z" stroke="white" stroke-width="4"/>
<path opacity="0.478" d="M615.321 682.13L783.303 869.66C785.418 872.023 787.999 873.923 790.884 875.239C793.769 876.556 796.895 877.261 800.066 877.31L1128.73 882.58C1134.12 882.67 1139.36 880.86 1143.55 877.47L1373.91 691.27C1380.26 686.14 1383.41 678.02 1382.19 669.95L1347.76 442.17C1347.16 438.202 1345.53 434.46 1343.04 431.316C1340.55 428.172 1337.28 425.734 1333.55 424.246L1058.45 314.451C1053.44 312.453 1047.89 312.277 1042.77 313.952L730.353 416.129C727.339 417.114 724.562 418.713 722.195 420.823C719.828 422.934 717.924 425.511 716.6 428.393L611.551 657.19C609.681 661.262 609.042 665.792 609.711 670.223C610.381 674.653 612.331 678.792 615.321 682.13Z" stroke="white" stroke-width="4"/>
<path opacity="0.493" d="M595.298 663.611L751.306 858.311C753.294 860.789 755.774 862.828 758.588 864.301C761.403 865.775 764.492 866.649 767.662 866.871L1091.28 889.341C1096.68 889.711 1102.04 888.171 1106.42 884.981L1342.96 712.551C1346.2 710.192 1348.76 707.03 1350.4 703.377C1352.04 699.723 1352.69 695.705 1352.3 691.721L1330 464.099C1329.61 460.114 1328.19 456.299 1325.87 453.034C1323.55 449.768 1320.42 447.164 1316.79 445.48L1051.28 322.24C1046.37 319.959 1040.81 319.486 1035.58 320.903L722.483 405.755C719.416 406.586 716.555 408.044 714.079 410.036C711.604 412.028 709.568 414.511 708.1 417.33L592.848 638.601C590.787 642.558 589.921 647.029 590.356 651.47C590.791 655.91 592.508 660.129 595.298 663.611Z" stroke="white" stroke-width="4"/>
<path opacity="0.507" d="M576.387 645.46L720.139 846.591C721.989 849.182 724.358 851.36 727.095 852.987C729.832 854.614 732.878 855.654 736.038 856.041L1053.72 895.201C1059.12 895.861 1064.59 894.591 1069.14 891.611L1311.07 733.08C1314.41 730.891 1317.12 727.87 1318.94 724.314C1320.76 720.758 1321.62 716.79 1321.44 712.801L1311.15 485.974C1310.97 481.984 1309.76 478.109 1307.62 474.732C1305.49 471.355 1302.52 468.592 1298.99 466.716L1043.71 330.732C1038.91 328.172 1033.35 327.4 1028.03 328.553L715.194 396.291C712.083 396.964 709.145 398.277 706.566 400.145C703.988 402.013 701.826 404.396 700.217 407.144L575.254 620.46C573.01 624.292 571.922 628.692 572.123 633.128C572.324 637.564 573.805 641.848 576.387 645.46Z" stroke="white" stroke-width="4"/>
<path opacity="0.522" d="M558.565 627.737L689.821 834.557C691.53 837.251 693.781 839.56 696.432 841.337C699.082 843.113 702.073 844.319 705.214 844.877L1016.11 900.157C1021.5 901.107 1027.05 900.117 1031.77 897.347L1278.29 752.817C1281.73 750.801 1284.58 747.928 1286.57 744.478C1288.57 741.029 1289.63 737.121 1289.66 733.137L1291.25 507.733C1291.28 503.75 1290.27 499.828 1288.32 496.35C1286.38 492.873 1283.57 489.96 1280.16 487.895L1035.7 339.899C1031.02 337.065 1025.49 335.993 1020.09 336.875L708.439 387.759C705.29 388.273 702.283 389.437 699.608 391.176C696.933 392.916 694.649 395.192 692.902 397.862L558.741 602.807C556.32 606.507 555.016 610.825 554.985 615.246C554.954 619.667 556.197 624.004 558.565 627.737Z" stroke="white" stroke-width="4"/>
<path opacity="0.536" d="M541.787 610.5L660.351 822.26C661.913 825.049 664.04 827.482 666.595 829.404C669.15 831.325 672.078 832.693 675.192 833.42L978.502 904.22C983.862 905.47 989.482 904.76 994.362 902.22L1244.68 771.72C1248.2 769.882 1251.19 767.163 1253.35 763.828C1255.51 760.493 1256.77 756.656 1257 752.69L1270.29 529.327C1270.53 525.361 1269.73 521.401 1267.98 517.833C1266.23 514.266 1263.59 511.212 1260.31 508.97L1027.23 349.72C1022.69 346.618 1017.18 345.246 1011.71 345.851L702.152 380.193C698.974 380.545 695.905 381.557 693.14 383.162C690.375 384.767 687.974 386.931 686.093 389.516L543.261 585.728C540.672 589.284 539.157 593.507 538.896 597.898C538.635 602.288 539.638 606.662 541.787 610.5Z" stroke="white" stroke-width="4"/>
<path opacity="0.551" d="M526.013 593.809L631.734 809.749C633.141 812.627 635.136 815.179 637.589 817.24C640.041 819.302 642.898 820.827 645.976 821.719L940.934 907.399C946.243 908.94 951.929 908.518 956.952 906.209L1210.28 789.749C1213.88 788.096 1217 785.539 1219.32 782.327C1221.64 779.115 1223.09 775.357 1223.53 771.419L1248.31 550.69C1248.75 546.751 1248.17 542.765 1246.62 539.118C1245.07 535.471 1242.6 532.287 1239.45 529.876L1018.24 360.155C1013.85 356.788 1008.4 355.115 1002.88 355.443L696.274 373.599C693.075 373.788 689.951 374.644 687.103 376.111C684.254 377.578 681.743 379.624 679.732 382.118L528.769 569.25C526.021 572.657 524.302 576.778 523.813 581.128C523.325 585.478 524.088 589.877 526.013 593.809Z" stroke="white" stroke-width="4"/>
<path opacity="0.565" d="M511.199 577.7L603.97 797.069C605.221 800.026 607.077 802.688 609.419 804.884C611.761 807.08 614.537 808.761 617.568 809.819L903.458 909.699C908.708 911.528 914.441 911.4 919.603 909.339L1175.17 806.869C1178.84 805.399 1182.07 803.007 1184.54 799.926C1187.02 796.845 1188.66 793.178 1189.3 789.279L1225.33 571.773C1225.97 567.873 1225.6 563.874 1224.25 560.159C1222.9 556.445 1220.62 553.141 1217.62 550.566L1008.73 371.177C1004.51 367.554 999.129 365.581 993.57 365.626L690.744 367.999C687.533 368.024 684.363 368.721 681.438 370.045C678.513 371.37 675.898 373.292 673.76 375.688L515.218 553.432C512.32 556.681 510.403 560.687 509.692 564.983C508.98 569.279 509.503 573.689 511.199 577.7Z" stroke="white" stroke-width="4"/>
<path opacity="0.58" d="M497.307 562.232L577.065 784.268C578.154 787.296 579.865 790.062 582.089 792.387C584.313 794.712 587 796.545 589.976 797.768L866.132 911.128C871.304 913.254 877.073 913.421 882.358 911.598L1139.41 823.048C1143.14 821.762 1146.47 819.541 1149.09 816.598C1151.71 813.654 1153.53 810.087 1154.38 806.238L1201.38 592.518C1202.23 588.67 1202.07 584.668 1200.93 580.898C1199.79 577.127 1197.69 573.714 1194.85 570.986L998.67 382.75C994.638 378.879 989.334 376.61 983.75 376.367L685.511 363.401C682.296 363.261 679.088 363.797 676.093 364.975C673.099 366.153 670.385 367.946 668.126 370.239L502.567 538.316C499.527 541.402 497.421 545.284 496.49 549.515C495.559 553.747 495.843 558.154 497.307 562.232Z" stroke="white" stroke-width="4"/>
<path opacity="0.594" d="M484.284 547.446L551.009 771.387C551.93 774.478 553.491 777.342 555.59 779.791C557.688 782.241 560.278 784.222 563.192 785.607L828.994 911.717C834.074 914.124 839.86 914.59 845.26 913.027L1103.04 838.257C1106.82 837.162 1110.25 835.119 1113.01 832.322C1115.77 829.524 1117.77 826.066 1118.81 822.277L1176.5 612.887C1178.62 605.187 1176.59 596.927 1171.14 591.087L988.031 394.84C984.197 390.728 978.988 388.164 973.391 387.634L680.507 359.814C677.296 359.509 674.058 359.883 671.001 360.91C667.944 361.938 665.138 363.597 662.764 365.78L490.758 523.948C487.586 526.865 485.297 530.614 484.152 534.769C483.008 538.924 483.053 543.316 484.284 547.446Z" stroke="white" stroke-width="4"/>
<path opacity="0.609" d="M472.08 533.385L525.795 758.488C526.546 761.632 527.95 764.583 529.917 767.148C531.884 769.714 534.369 771.836 537.211 773.378L792.092 911.458C797.063 914.153 802.854 914.922 808.357 913.618L1066.14 852.468C1073.9 850.628 1080.14 844.908 1082.66 837.348L1150.71 632.828C1153.23 625.268 1151.65 616.948 1146.55 610.828L976.792 407.416C973.166 403.074 968.068 400.219 962.472 399.397L675.674 357.245C672.476 356.774 669.215 356.983 666.103 357.858C662.992 358.733 660.1 360.254 657.616 362.322L479.738 510.369C476.443 513.11 473.98 516.718 472.627 520.785C471.274 524.852 471.084 529.216 472.08 533.385Z" stroke="white" stroke-width="4"/>
<path opacity="0.623" d="M460.64 520.084L501.412 745.608C501.988 748.797 503.23 751.828 505.059 754.502C506.888 757.177 509.261 759.435 512.023 761.128L755.468 910.398C760.318 913.369 766.097 914.438 771.689 913.398L1028.77 865.668C1032.61 864.955 1036.21 863.275 1039.22 860.787C1042.23 858.299 1044.56 855.085 1045.99 851.448L1124.05 652.288C1125.48 648.652 1125.95 644.712 1125.44 640.84C1124.92 636.968 1123.42 633.292 1121.09 630.158L964.921 420.436C961.525 415.874 956.559 412.732 950.981 411.618L670.946 355.691C667.77 355.057 664.495 355.101 661.337 355.82C658.178 356.539 655.207 357.917 652.618 359.863L469.449 497.611C466.043 500.173 463.415 503.631 461.86 507.599C460.304 511.568 459.882 515.89 460.64 520.084Z" stroke="white" stroke-width="4"/>
<path opacity="0.638" d="M449.921 507.579L477.857 732.798C478.257 736.019 479.334 739.119 481.018 741.894C482.702 744.669 484.954 747.056 487.627 748.898L719.174 908.528C723.884 911.779 729.638 913.156 735.309 912.388L991.001 877.838C998.851 876.778 1005.6 871.748 1008.87 864.548L1096.57 671.228C1098.18 667.683 1098.86 663.787 1098.56 659.906C1098.25 656.024 1096.96 652.285 1094.81 649.038L952.421 433.865C949.262 429.093 944.438 425.67 938.891 424.263L666.275 355.151C663.128 354.353 659.848 354.23 656.65 354.791C653.452 355.352 650.409 356.583 647.721 358.405L459.844 485.707C456.335 488.084 453.552 491.385 451.801 495.245C450.05 499.104 449.399 503.373 449.921 507.579Z" stroke="white" stroke-width="4"/>
<path opacity="0.652" d="M439.858 495.901L455.105 720.091C455.325 723.337 456.232 726.5 457.766 729.371C459.3 732.241 461.425 734.753 464.002 736.741L683.242 905.901C687.799 909.42 693.511 911.101 699.248 910.611L952.882 888.961C960.742 888.291 967.712 883.631 971.352 876.631L1068.3 689.621C1070.09 686.173 1070.97 682.33 1070.88 678.449C1070.78 674.567 1069.7 670.774 1067.74 667.421L939.258 447.668C936.352 442.697 931.687 438.998 926.186 437.3L661.59 355.621C658.48 354.661 655.203 354.372 651.974 354.773C648.744 355.174 645.637 356.255 642.857 357.946L450.856 474.688C447.255 476.877 444.325 480.013 442.386 483.754C440.446 487.495 439.572 491.697 439.858 495.901Z" stroke="white" stroke-width="4"/>
<path opacity="0.667" d="M430.4 485.074L433.146 707.53C433.187 710.792 433.92 714.007 435.298 716.964C436.676 719.921 438.667 722.551 441.138 724.68L647.718 902.53C652.109 906.309 657.764 908.291 663.553 908.08L914.492 899.03C918.36 898.892 922.13 897.779 925.453 895.795C928.776 893.811 931.544 891.019 933.5 887.68L1039.28 707.41C1041.24 704.072 1042.32 700.295 1042.44 696.427C1042.55 692.559 1041.68 688.725 1039.92 685.28L925.43 461.8C922.788 456.644 918.298 452.674 912.857 450.685L656.839 357.086C653.776 355.966 650.51 355.51 647.257 355.749C644.004 355.988 640.84 356.916 637.973 358.472L442.429 464.574C438.747 466.571 435.681 469.536 433.561 473.149C431.441 476.762 430.348 480.885 430.4 485.074Z" stroke="white" stroke-width="4"/>
<path opacity="0.681" d="M421.487 475.124L411.959 695.16C411.818 698.426 412.374 701.686 413.591 704.721C414.808 707.755 416.658 710.496 419.018 712.76L612.637 898.44C616.848 902.472 622.43 904.759 628.259 904.84L875.886 908.04C879.742 908.092 883.549 907.173 886.957 905.368C890.364 903.563 893.263 900.929 895.385 897.71L1009.56 724.58C1013.88 718.03 1014.56 709.75 1011.38 702.58L910.919 476.228C908.554 470.898 904.254 466.666 898.887 464.388L651.962 359.537C648.953 358.259 645.706 357.637 642.438 357.713C639.17 357.789 635.955 358.561 633.009 359.977L434.502 455.389C430.75 457.192 427.557 459.98 425.265 463.456C422.973 466.932 421.667 470.964 421.487 475.124Z" stroke="white" stroke-width="4"/>
<path opacity="0.696" d="M413.067 466.071L391.528 683.03C391.205 686.29 391.582 689.581 392.634 692.684C393.686 695.786 395.389 698.628 397.628 701.02L578.041 893.67C582.053 897.951 587.55 900.538 593.407 900.9L837.136 916C844.93 916.48 852.436 912.979 857.07 906.689L979.19 741.079C981.469 737.986 982.938 734.372 983.462 730.566C983.986 726.76 983.548 722.883 982.19 719.29L895.724 490.91C893.646 485.421 889.549 480.935 884.271 478.37L646.908 362.956C643.961 361.523 640.742 360.737 637.467 360.649C634.191 360.561 630.934 361.174 627.915 362.448L427.019 447.15C423.207 448.757 419.899 451.363 417.443 454.693C414.988 458.023 413.476 461.953 413.067 466.071Z" stroke="white" stroke-width="4"/>
<path opacity="0.71" d="M405.077 457.929L371.825 671.157C371.319 674.402 371.515 677.718 372.397 680.882C373.28 684.045 374.829 686.983 376.942 689.497L543.96 888.237C547.761 892.759 553.156 895.645 559.027 896.297L798.301 922.897C802.107 923.32 805.958 922.786 809.505 921.344C813.052 919.901 816.183 917.596 818.614 914.637L948.204 756.897C950.635 753.939 952.289 750.42 953.015 746.66C953.741 742.9 953.516 739.018 952.361 735.367L879.83 505.806C878.05 500.174 874.171 495.442 868.997 492.591L641.615 367.323C638.738 365.739 635.555 364.788 632.281 364.536C629.006 364.285 625.715 364.737 622.63 365.863L419.915 439.867C416.053 441.277 412.64 443.696 410.03 446.873C407.421 450.049 405.71 453.867 405.077 457.929Z" stroke="white" stroke-width="4"/>
<path opacity="0.725" d="M397.458 450.718L352.828 659.589C352.14 662.807 352.151 666.137 352.861 669.351C353.571 672.565 354.963 675.589 356.942 678.219L510.428 882.199C514.007 886.949 519.284 890.131 525.155 891.079L759.446 928.749C763.212 929.355 767.07 929.015 770.672 927.76C774.274 926.505 777.507 924.374 780.081 921.559L916.657 772.009C919.23 769.192 921.061 765.78 921.987 762.079C922.912 758.378 922.902 754.505 921.958 750.809L863.235 520.884C861.763 515.121 858.116 510.153 853.06 507.022L636.034 372.622C633.235 370.888 630.096 369.776 626.83 369.36C623.564 368.944 620.247 369.234 617.103 370.211L413.129 433.559C409.229 434.77 405.721 436.998 402.967 440.014C400.213 443.029 398.311 446.724 397.458 450.718Z" stroke="white" stroke-width="4"/>
<path opacity="0.739" d="M390.155 444.441L334.511 648.359C333.642 651.543 333.468 654.875 334.002 658.131C334.536 661.387 335.764 664.49 337.604 667.229L477.477 875.569C480.813 880.542 485.96 884.016 491.821 885.249L720.633 933.569C724.352 934.353 728.207 934.203 731.854 933.133C735.501 932.064 738.826 930.107 741.533 927.439L884.599 786.379C887.305 783.711 889.308 780.414 890.428 776.783C891.549 773.151 891.752 769.299 891.019 765.569L845.937 536.099C844.783 530.223 841.382 525.028 836.457 521.62L630.114 378.821C627.4 376.943 624.313 375.671 621.064 375.092C617.815 374.512 614.479 374.639 611.284 375.462L406.602 428.223C402.673 429.236 399.083 431.27 396.195 434.118C393.306 436.966 391.222 440.528 390.155 444.441Z" stroke="white" stroke-width="4"/>
<path opacity="0.754" d="M383.101 439.105L316.841 637.499C315.793 640.637 315.434 643.964 315.789 647.253C316.144 650.543 317.204 653.717 318.898 656.559L445.129 868.399C448.216 873.579 453.216 877.339 459.049 878.869L681.919 937.359C685.58 938.319 689.422 938.362 693.104 937.483C696.786 936.604 700.194 934.83 703.026 932.319L852.072 800.009C854.902 797.495 857.069 794.322 858.379 790.77C859.69 787.219 860.104 783.399 859.585 779.649L827.93 551.412C827.102 545.438 823.96 540.028 819.181 536.349L623.797 385.895C621.176 383.876 618.15 382.447 614.926 381.704C611.702 380.961 608.356 380.923 605.116 381.592L400.268 423.866C396.323 424.68 392.66 426.516 389.647 429.191C386.635 431.865 384.377 435.284 383.101 439.105Z" stroke="white" stroke-width="4"/>
<path opacity="0.768" d="M376.246 434.712L299.796 627.038C298.571 630.121 298.027 633.431 298.202 636.744C298.376 640.056 299.264 643.291 300.806 646.228L413.418 860.718C416.243 866.097 421.079 870.141 426.873 871.968L643.371 940.148C650.674 942.448 658.643 940.958 664.627 936.188L819.135 812.858C822.082 810.506 824.406 807.465 825.902 804.004C827.397 800.542 828.018 796.766 827.711 793.008L809.224 566.786C808.729 560.731 805.859 555.118 801.24 551.172L617.046 393.81C614.525 391.656 611.567 390.072 608.376 389.168C605.185 388.264 601.837 388.061 598.56 388.572L394.073 420.483C390.121 421.1 386.398 422.737 383.271 425.232C380.145 427.727 377.724 430.995 376.246 434.712Z" stroke="white" stroke-width="4"/>
<path opacity="0.783" d="M369.53 431.262L283.344 617.008C281.944 620.022 281.215 623.304 281.207 626.627C281.199 629.951 281.911 633.236 283.296 636.258L382.364 852.578C383.627 855.332 385.421 857.81 387.643 859.869C389.865 861.928 392.473 863.528 395.315 864.578L605.043 941.948C608.566 943.247 612.354 943.665 616.075 943.163C619.796 942.66 623.338 941.255 626.391 939.068L785.835 824.938C788.888 822.752 791.359 819.852 793.033 816.491C794.708 813.131 795.534 809.411 795.44 805.658L789.819 582.183C789.743 579.153 789.069 576.169 787.835 573.401C786.602 570.633 784.834 568.136 782.633 566.054L609.811 402.536C607.396 400.251 604.514 398.516 601.365 397.452C598.215 396.388 594.872 396.019 591.566 396.372L387.956 418.072C384.007 418.492 380.235 419.929 377.006 422.24C373.777 424.551 371.201 427.659 369.53 431.262Z" stroke="white" stroke-width="4"/>
<path opacity="0.797" d="M362.894 428.75L267.451 607.429C265.881 610.369 264.968 613.615 264.776 616.942C264.585 620.269 265.118 623.598 266.34 626.699L351.989 843.999C353.108 846.84 354.781 849.43 356.911 851.617C359.041 853.804 361.585 855.545 364.395 856.739L566.992 942.789C570.434 944.25 574.179 944.85 577.904 944.538C581.63 944.226 585.223 943.011 588.373 940.999L752.221 836.229C755.372 834.215 757.983 831.462 759.83 828.211C761.677 824.959 762.704 821.307 762.82 817.569L769.719 597.569C769.816 594.517 769.303 591.477 768.212 588.626C767.121 585.774 765.473 583.168 763.364 580.96L602.048 412.037C599.747 409.627 596.949 407.745 593.848 406.523C590.747 405.301 587.418 404.768 584.09 404.96L381.856 416.625C377.922 416.852 374.111 418.086 370.791 420.209C367.47 422.333 364.751 425.274 362.894 428.75Z" stroke="white" stroke-width="4"/>
<path opacity="0.812" d="M356.285 427.168L252.087 598.331C250.349 601.184 249.254 604.381 248.878 607.701C248.502 611.02 248.855 614.382 249.91 617.551L322.313 835.051C323.287 837.968 324.835 840.661 326.865 842.971C328.896 845.281 331.369 847.161 334.137 848.501L529.274 942.701C532.627 944.316 536.322 945.095 540.042 944.97C543.762 944.844 547.396 943.819 550.632 941.981L718.348 846.721C721.585 844.883 724.328 842.286 726.34 839.154C728.352 836.023 729.574 832.449 729.9 828.741L748.936 612.901C749.206 609.836 748.859 606.748 747.915 603.819C746.971 600.891 745.45 598.181 743.441 595.851L593.72 422.275C591.538 419.745 588.831 417.72 585.786 416.343C582.742 414.965 579.434 414.267 576.093 414.298L375.72 416.129C371.809 416.165 367.972 417.197 364.572 419.129C361.171 421.06 358.319 423.827 356.285 427.168Z" stroke="white" stroke-width="4"/>
<path opacity="0.826" d="M349.64 426.5L237.212 589.729C235.311 592.487 234.036 595.627 233.476 598.93C232.916 602.233 233.084 605.618 233.969 608.849L293.347 825.749C294.166 828.737 295.58 831.53 297.505 833.958C299.43 836.386 301.827 838.4 304.55 839.879L491.935 941.699C495.191 943.466 498.825 944.422 502.53 944.485C506.234 944.548 509.899 943.715 513.213 942.059L684.257 856.419C687.569 854.759 690.432 852.324 692.602 849.321C694.772 846.318 696.185 842.835 696.72 839.169L727.472 628.139C727.919 625.071 727.741 621.945 726.95 618.948C726.158 615.951 724.769 613.145 722.866 610.699L584.781 433.204C582.724 430.56 580.114 428.397 577.135 426.867C574.155 425.336 570.877 424.475 567.53 424.344L369.485 416.565C365.607 416.412 361.755 417.243 358.285 418.98C354.815 420.717 351.841 423.304 349.64 426.5Z" stroke="white" stroke-width="4"/>
<path opacity="0.841" d="M342.915 426.738L222.798 581.644C220.741 584.298 219.289 587.371 218.546 590.645C217.802 593.92 217.784 597.318 218.494 600.6L265.113 816.15C265.774 819.204 267.05 822.091 268.863 824.635C270.676 827.179 272.988 829.328 275.658 830.95L455.033 939.83C458.184 941.747 461.75 942.877 465.43 943.124C469.11 943.371 472.796 942.728 476.175 941.25L650.007 865.32C656.865 862.32 661.837 856.18 663.335 848.85L705.347 643.26C705.973 640.2 705.968 637.044 705.333 633.985C704.699 630.926 703.448 628.029 701.656 625.47L575.203 444.789C573.277 442.038 570.773 439.742 567.865 438.062C564.957 436.382 561.716 435.359 558.371 435.065L363.103 417.92C359.269 417.584 355.412 418.214 351.885 419.755C348.358 421.296 345.274 423.697 342.915 426.738Z" stroke="white" stroke-width="4"/>
<path opacity="0.855" d="M336.053 427.86L208.808 574.098C206.599 576.637 204.973 579.631 204.047 582.868C203.121 586.104 202.917 589.505 203.449 592.829L237.618 806.289C238.116 809.4 239.247 812.376 240.941 815.031C242.636 817.687 244.858 819.967 247.469 821.729L418.612 937.139C421.655 939.19 425.144 940.483 428.789 940.911C432.433 941.339 436.127 940.889 439.562 939.599L615.644 873.429C619.08 872.138 622.156 870.044 624.616 867.321C627.077 864.598 628.85 861.327 629.788 857.779L682.57 658.219C683.376 655.174 683.548 651.997 683.075 648.883C682.601 645.77 681.493 642.786 679.819 640.119L564.951 456.982C563.162 454.13 560.769 451.705 557.94 449.879C555.111 448.053 551.916 446.871 548.58 446.415L356.518 420.169C352.737 419.652 348.886 420.085 345.314 421.427C341.741 422.77 338.559 424.98 336.053 427.86Z" stroke="white" stroke-width="4"/>
<path opacity="0.87" d="M329.001 429.848L195.204 567.106C192.848 569.524 191.053 572.43 189.946 575.618C188.839 578.807 188.447 582.2 188.799 585.557L210.869 796.23C211.201 799.389 212.183 802.444 213.753 805.205C215.323 807.965 217.447 810.371 219.992 812.27L382.716 933.64C385.642 935.824 389.046 937.28 392.647 937.887C396.247 938.494 399.941 938.234 403.421 937.13L581.213 880.75C584.694 879.645 587.861 877.727 590.454 875.156C593.046 872.584 594.99 869.432 596.123 865.96L659.155 672.99C660.141 669.971 660.491 666.78 660.183 663.618C659.875 660.457 658.916 657.393 657.367 654.62L553.992 469.74C552.345 466.794 550.069 464.247 547.327 462.279C544.584 460.311 541.443 458.971 538.124 458.353L349.678 423.29C345.958 422.598 342.125 422.835 338.518 423.979C334.911 425.123 331.642 427.139 329.001 429.848Z" stroke="white" stroke-width="4"/>
<path opacity="0.884" d="M321.714 432.675L181.952 560.677C179.456 562.963 177.496 565.771 176.21 568.901C174.925 572.032 174.346 575.407 174.515 578.787L184.877 785.99C185.037 789.19 185.864 792.321 187.303 795.182C188.743 798.044 190.765 800.574 193.238 802.61L347.389 929.4C350.194 931.707 353.505 933.317 357.052 934.098C360.599 934.878 364.281 934.807 367.795 933.89L546.766 887.29C550.281 886.374 553.528 884.638 556.243 882.226C558.959 879.813 561.064 876.792 562.388 873.41L635.122 687.54C636.289 684.558 636.821 681.365 636.682 678.165C636.543 674.965 635.738 671.83 634.317 668.96L542.303 483.014C540.802 479.981 538.651 477.317 536.002 475.211C533.353 473.105 530.271 471.609 526.978 470.831L342.537 427.253C338.887 426.391 335.082 426.434 331.452 427.379C327.823 428.324 324.48 430.142 321.714 432.675Z" stroke="white" stroke-width="4"/>
<path opacity="0.899" d="M314.141 436.318L169.013 554.823C166.385 556.969 164.264 559.669 162.803 562.731C161.341 565.793 160.575 569.141 160.56 572.534L159.641 775.63C159.626 778.861 160.293 782.059 161.596 785.015C162.9 787.972 164.812 790.621 167.207 792.79L312.668 924.44C315.347 926.862 318.558 928.62 322.043 929.572C325.527 930.524 329.186 930.643 332.725 929.92L512.345 893.06C515.883 892.333 519.2 890.784 522.028 888.538C524.856 886.292 527.116 883.411 528.624 880.13L610.486 701.83C611.834 698.893 612.548 695.706 612.582 692.476C612.616 689.245 611.969 686.044 610.684 683.08L529.858 496.756C528.508 493.643 526.485 490.868 523.936 488.629C521.387 486.389 518.374 484.742 515.113 483.805L335.044 432.029C331.472 431.002 327.705 430.855 324.065 431.602C320.424 432.349 317.019 433.967 314.141 436.318Z" stroke="white" stroke-width="4"/>
<path opacity="0.913" d="M306.24 440.747L156.352 549.552C153.599 551.55 151.324 554.134 149.69 557.118C148.056 560.102 147.104 563.411 146.903 566.807L135.165 765.191C134.972 768.446 135.473 771.704 136.635 774.751C137.797 777.797 139.594 780.562 141.905 782.861L278.59 918.821C281.138 921.352 284.243 923.252 287.656 924.369C291.069 925.485 294.696 925.787 298.247 925.251L477.997 898.081C481.549 897.543 484.925 896.181 487.856 894.104C490.786 892.027 493.19 889.293 494.875 886.121L585.268 715.841C586.797 712.961 587.696 709.79 587.906 706.537C588.116 703.284 587.632 700.023 586.486 696.971L516.635 510.918C515.44 507.733 513.552 504.853 511.11 502.486C508.667 500.118 505.729 498.322 502.508 497.227L327.158 437.585C323.673 436.399 319.954 436.067 316.314 436.618C312.674 437.168 309.219 438.584 306.24 440.747Z" stroke="white" stroke-width="4"/>
<path opacity="0.928" d="M297.967 445.926L143.931 544.867C141.062 546.71 138.638 549.168 136.835 552.064C135.033 554.959 133.897 558.219 133.51 561.608L111.447 754.718C111.074 757.986 111.406 761.297 112.421 764.426C113.436 767.555 115.111 770.43 117.331 772.858L245.189 912.568C247.599 915.203 250.59 917.242 253.924 918.521C257.258 919.8 260.845 920.285 264.399 919.938L443.765 902.358C447.319 902.012 450.744 900.842 453.767 898.941C456.79 897.04 459.329 894.461 461.181 891.408L559.49 729.538C561.198 726.725 562.282 723.579 562.671 720.312C563.059 717.045 562.742 713.732 561.741 710.598L502.617 525.444C501.58 522.195 499.833 519.217 497.503 516.727C495.173 514.236 492.318 512.295 489.145 511.044L318.835 443.881C315.444 442.543 311.783 442.031 308.155 442.387C304.526 442.743 301.035 443.955 297.967 445.926Z" stroke="white" stroke-width="4"/>
<path opacity="0.942" d="M289.283 451.83L131.717 540.778C128.739 542.459 126.173 544.783 124.207 547.58C122.24 550.378 120.922 553.579 120.349 556.95L88.4847 744.249C87.9271 747.523 88.0852 750.879 88.9481 754.087C89.8111 757.294 91.3584 760.276 93.4837 762.829L212.495 905.759C214.765 908.487 217.636 910.653 220.884 912.086C224.131 913.519 227.666 914.181 231.212 914.019L409.693 905.929C413.239 905.771 416.7 904.793 419.804 903.072C422.909 901.35 425.572 898.933 427.585 896.009L533.175 742.899C535.06 740.164 536.331 737.053 536.9 733.78C537.469 730.507 537.323 727.15 536.473 723.939L487.791 540.292C486.914 536.987 485.312 533.918 483.1 531.31C480.889 528.702 478.123 526.62 475.006 525.215L310.038 450.89C306.747 449.407 303.154 448.72 299.548 448.883C295.942 449.046 292.426 450.056 289.283 451.83Z" stroke="white" stroke-width="4"/>
<path opacity="0.957" d="M280.151 458.42L119.671 537.284C116.594 538.796 113.894 540.977 111.768 543.668C109.643 546.358 108.146 549.489 107.387 552.832L66.2707 733.84C65.528 737.109 65.509 740.501 66.215 743.777C66.921 747.054 68.3349 750.137 70.3577 752.81L180.537 898.44C182.665 901.252 185.411 903.538 188.563 905.119C191.715 906.7 195.189 907.536 198.716 907.56L375.819 908.81C379.346 908.834 382.831 908.047 386.005 906.509C389.18 904.971 391.958 902.723 394.125 899.94L506.347 755.89C508.407 753.246 509.864 750.184 510.616 746.917C511.369 743.651 511.398 740.259 510.702 736.98L472.144 555.405C471.432 552.052 469.979 548.9 467.891 546.18C465.804 543.46 463.135 541.242 460.08 539.686L300.729 458.565C297.545 456.945 294.029 456.088 290.457 456.063C286.885 456.038 283.356 456.845 280.151 458.42Z" stroke="white" stroke-width="4"/>
<path opacity="0.971" d="M270.528 465.655L107.753 534.382C104.586 535.719 101.76 537.749 99.4807 540.322C97.2018 542.895 95.5286 545.947 94.5842 549.252L44.7932 723.519C43.8631 726.774 43.6631 730.194 44.2075 733.536C44.7518 736.877 46.0271 740.057 47.9422 742.849L149.33 890.639C151.314 893.526 153.931 895.923 156.981 897.647C160.03 899.372 163.433 900.378 166.93 900.589L342.176 911.009C345.674 911.218 349.173 910.624 352.406 909.274C355.639 907.924 358.521 905.853 360.832 903.219L479.025 768.489C481.258 765.944 482.902 762.938 483.839 759.685C484.775 756.432 484.982 753.012 484.444 749.669L455.663 570.73C455.117 567.336 453.818 564.108 451.86 561.283C449.902 558.457 447.336 556.107 444.35 554.404L290.87 466.865C287.8 465.114 284.368 464.094 280.841 463.884C277.313 463.674 273.784 464.28 270.528 465.655Z" stroke="white" stroke-width="4"/>
<path opacity="0.986" d="M260.392 473.502L95.934 532.073C92.6875 533.229 89.7423 535.1 87.3161 537.548C84.8899 539.996 83.0448 542.957 81.917 546.214L24.046 713.331C22.9266 716.563 22.5421 720.003 22.9204 723.403C23.2988 726.802 24.4304 730.074 26.233 732.981L118.904 882.421C122.62 888.421 128.879 892.371 135.885 893.161L308.81 912.571C312.268 912.961 315.769 912.56 319.05 911.399C322.33 910.239 325.305 908.348 327.748 905.871L451.244 780.691C453.646 778.255 455.475 775.315 456.597 772.083C457.72 768.852 458.107 765.411 457.732 762.011L438.35 586.221C437.972 582.795 436.83 579.498 435.007 576.574C433.183 573.649 430.726 571.171 427.817 569.324L280.436 475.751C277.486 473.877 274.147 472.701 270.674 472.311C267.201 471.922 263.684 472.329 260.392 473.502Z" stroke="white" stroke-width="4"/>
<path d="M249.708 481.91L84.179 530.346C80.8626 531.316 77.8075 533.021 75.2407 535.335C72.6738 537.648 70.661 540.51 69.352 543.708L4.01497 703.328C2.70608 706.525 2.13444 709.976 2.34253 713.425C2.55063 716.873 3.53311 720.231 5.21697 723.248L89.272 873.848C90.9557 876.865 93.2979 879.464 96.1244 881.451C98.9509 883.439 102.189 884.764 105.598 885.328L275.75 913.508C279.159 914.073 282.651 913.864 285.967 912.894C289.284 911.925 292.339 910.22 294.906 907.908L423.027 792.448C425.593 790.134 427.605 787.272 428.914 784.075C430.223 780.878 430.795 777.426 430.588 773.978L420.2 601.818C419.993 598.368 419.01 595.01 417.326 591.993C415.642 588.975 413.3 586.376 410.473 584.389L269.399 485.172C266.573 483.184 263.335 481.858 259.926 481.294C256.517 480.729 253.024 480.939 249.708 481.91Z" stroke="white" stroke-width="4"/>
</g>
</svg>
