<svg width="419" height="335" viewBox="0 0 419 335" fill="none" xmlns="http://www.w3.org/2000/svg">
<path d="M373.427 291.269C388.199 275.909 400.549 257.119 413.515 240.119L417.687 229.759C425.142 204.149 395.899 220.409 375.187 231.989C363.479 238.539 352.593 254.599 342.295 263.909C324.582 279.929 304.073 292.029 283.494 290.639C255.295 288.739 239.027 261.289 253.534 230.259C264.075 207.709 282.776 189.239 295.996 168.209C304.86 154.109 320.92 121.469 307.224 111.029C294.626 101.419 269.774 110.989 254.019 115.909C244.532 118.879 225.196 125.289 218.799 116.679C216.128 113.079 223.999 104.319 226.188 101.449C235.669 89.0193 248.319 73.0794 250.294 58.1594C252.68 40.1394 243.704 27.8494 231.389 19.8494C206.062 3.39937 177.78 -0.160594 145.089 0.889406C110.398 2.00941 61.8378 -0.310623 28.2953 27.1094C17.4216 35.9994 3.86103 52.8794 0.82693 66.6694C-1.54827 77.4594 7.89263 84.0694 15.1018 87.3394C31.9762 94.9994 54.7018 95.2094 74.7648 92.8594C100.728 89.8294 125.315 78.9193 151.158 72.4393C164.987 68.9693 180.21 79.5494 172.417 96.4594C161.905 119.269 140.422 136.329 129.335 158.849C120.658 176.469 133.151 187.339 145.719 191.979C159.436 197.039 176.69 193.419 192.249 188.409C202.454 185.119 231.245 172.789 233.701 188.079C235.892 201.719 224.895 219.189 217.525 231.699C206.605 250.239 191.922 269.949 184.612 289.839C178.536 306.369 180.73 315.879 193.013 323.289C225.416 342.849 271.304 331.869 311.258 323.239C331.422 318.889 357.037 308.319 373.427 291.269Z" fill="#0590CB"/>
</svg>
