<svg width="317" height="611" viewBox="0 0 317 611" fill="none" xmlns="http://www.w3.org/2000/svg">
<path d="M314.445 256.742C317.505 294.172 317.695 307.742 315.485 328.512C312.865 352.982 313.945 359.052 306.935 373.352C299.925 387.642 297.955 394.442 286.075 401.162C272.825 408.652 253.845 389.142 253.845 389.142C249.525 386.222 243.205 380.612 239.805 376.672C234.485 370.512 208.795 331.712 186.045 295.492C176.175 279.772 168.295 281.592 167.125 299.862C166.905 303.352 171.135 323.802 176.535 345.302C193.105 411.262 199.885 442.352 199.835 452.102C199.765 465.002 195.015 482.932 189.545 490.882C171.775 516.732 143.775 512.302 123.985 480.502C111.725 460.812 101.695 449.142 97.8547 450.102C92.2347 451.492 92.0248 462.352 96.9148 498.122C100.515 524.482 101.285 538.602 99.8247 551.632C95.2647 592.472 74.3547 616.202 48.4447 609.922C22.7247 603.692 16.5148 580.382 13.1648 477.462C11.9148 439.292 10.9447 429.592 5.47474 401.142C-3.11526 356.522 -1.72531 334.422 10.5547 319.732C25.2047 302.222 41.5248 306.802 74.6648 337.722C95.5248 357.192 100.565 358.812 104.315 347.272C106.955 339.162 106.995 339.452 95.1248 286.382C87.1348 250.702 84.9148 220.322 88.5448 196.402C97.1548 139.652 107.485 123.182 130.805 129.002C153.215 134.582 171.365 156.022 216.845 230.632C231.475 254.632 236.765 258.762 240.315 248.972C242.185 243.802 231.665 197.152 223.975 176.472L206.805 99.7322C204.925 75.2522 207.765 48.4221 214.035 31.3821C220.355 14.2121 235.335 0.622244 248.575 0.0422445C265.655 -0.707756 274.925 8.37228 289.205 39.8323C302.375 68.8423 310.435 116.632 310.645 166.912C310.765 197.962 311.975 226.532 314.445 256.742Z" fill="#00B99A"/>
</svg>
