<svg width="320" height="314" viewBox="0 0 320 314" fill="none" xmlns="http://www.w3.org/2000/svg">
<path d="M18.5702 120.804C21.9602 95.8973 23.9702 87.2533 29.1902 75.0653C35.3502 60.7103 35.4103 56.4283 43.6803 50.3273C51.9503 44.2273 54.7203 40.7633 65.9303 41.4783C78.4303 42.2753 91.5002 62.5183 91.5002 62.5183C94.7202 66.1643 99.2102 72.3443 101.48 76.2533C105.02 82.3593 120.72 117.576 134.32 149.943C140.22 163.984 147.23 166.124 151.17 155.082C151.92 152.969 151.58 138.292 150.42 122.465C146.86 73.9113 146.06 51.4533 147.67 45.3183C149.79 37.2023 156.73 27.8703 162.67 25.1303C181.97 16.2293 205.15 30.7163 216.93 59.0473C224.23 76.5953 230.92 88.1493 234.35 89.1503C239.36 90.6143 241.28 83.8483 242.85 59.2273C244 41.0843 245.61 31.8443 248.94 24.2273C259.38 0.348255 281.03 -5.90074 302.12 8.87726C323.07 23.5503 324.63 40.8533 310.99 107.227C305.93 131.847 305.21 138.378 305.31 158.622C305.48 190.372 300.76 203.748 287.92 207.891C272.62 212.831 259.43 203.13 236.12 169.777C221.44 148.775 217.4 145.65 212.35 151.371C208.8 155.386 208.81 155.186 210.43 193.647C211.52 219.505 208.54 239.612 201.61 253.196C185.17 285.431 173.72 291.515 154.75 278.108C136.53 265.227 124.49 244.122 97.6502 178.03C89.0202 156.774 85.1602 151.955 80.5702 156.659C78.1402 159.137 79.6402 192.983 82.8802 209.245L85.2202 264.861C82.9102 281.1 76.1802 296.851 68.1002 304.994C59.9502 313.192 45.0002 315.518 33.6102 310.358C18.9202 303.705 12.4702 294.103 5.33017 268.281C-1.25983 244.468 -0.469749 210.933 7.41025 179.106C12.2803 159.452 15.8302 140.911 18.5702 120.804Z" fill="#FE8363"/>
</svg>
